<?xml version="1.0" encoding="UTF-8"?>
<svg version="1.1" viewBox="0 0 2000 2000" width="1280" height="1280" xmlns="http://www.w3.org/2000/svg">
<path transform="translate(348,832)" d="m0 0h95l3 5 18 49 21 58 13 35 40 110v2l-2 1h-84l-3-3-10-33h-90l-10 34-6 2h-77l-3-1 1-5 11-30 20-55 15-41 16-44 23-63 7-19zm45 73-17 58-9 31v3h54l-2-11-19-65-5-16z" fill="#FB9350"/>
<path transform="translate(1384,832)" d="m0 0h210l42 1 1 1v64l-1 1h-84v192l-5 1h-78l-1-1v-192h-84l-1-4v-59z" fill="#FB9350"/>
<path transform="translate(1271,888)" d="m0 0h22l24 3 21 6 16 8 9 7 7 7 7 14 3 14v5l-10 1h-59l-2-1-3-9-6-5-9-3-14-1-14 3-5 4-1 2v6l5 5 12 4 28 5 27 5 15 4 16 8 10 8 7 8 5 11 2 8v22l-4 16-5 10-9 10-7 6-16 8-16 5-15 3-9 1h-41l-18-3-17-5-14-6-14-10-9-9-7-12-4-15v-9h69l5 14 7 5 12 4h23l10-3 5-4 1-2v-8l-5-5-21-6-37-7-23-6-11-5-10-6-9-8-7-11-4-14v-20l4-15 6-11 7-8 13-9 14-6 19-5z" fill="#FB9350"/>
<path transform="translate(749,888)" d="m0 0h21l19 2 21 5 17 7 12 8 8 8 6 10 4 13 1 10-1 1-12 1h-56l-2-2-3-8-6-5-8-3-15-1-14 3-5 4-1 7 3 5 10 4 25 5 30 5 22 6 13 7 10 8 6 7 6 12 3 15v10l-4 19-6 12-8 10-10 7-12 6-19 6-16 3-10 1h-35l-15-2-17-4-15-6-14-8-10-9-6-7-7-14-3-15 1-4h69l2 6 3 7 7 6 12 4h23l10-3 5-4 2-4-1-6-5-5-17-5-45-9-19-5-17-8-11-9-7-10-4-9-2-9v-18l4-16 8-14 7-7 13-8 15-6 16-4z" fill="#FB9350"/>
<path transform="translate(958,888)" d="m0 0h22l24 3 15 4 12 5 15 8 10 10 6 10 4 13 1 11-16 1h-54l-4-10-6-5-9-3-14-1-14 3-5 4-1 7 3 5 10 4 25 5 29 5 20 5 16 8 11 9 7 9 5 12 2 14-1 15-3 12-7 14-6 7-11 8-12 6-19 6-16 3-10 1h-36l-19-3-15-4-12-5-11-6-9-7-8-8-7-12-3-10-1-13 1-1h68l4 11 2 5 4 2 10 4 4 1h23l10-3 6-5 1-6-3-6-5-3-24-6-32-6-20-5-16-7-9-6-4-3v-2l-3-1-7-10-4-11-1-9v-13l3-15 7-14 9-10 11-7 11-5 17-5 18-3z" fill="#FB9350"/>
<path transform="translate(552,832)" d="m0 0h81l2 1v258l-3 1h-79l-2-6v-250z" fill="#FB9350"/>
<path transform="translate(1089,892)" d="m0 0 74 1 1 198-2 1h-74v-199z" fill="#FB9350"/>
<path transform="translate(1674,1016)" d="m0 0h32l23 1v74l-2 1h-78l-1-7v-66l1-2z" fill="#FB9350"/>
<path transform="translate(1088,819)" d="m0 0h75l1 2-1 48-1 1h-73l-1-1z" fill="#FB9350"/>
<path transform="translate(1395,1113)" d="m0 0h10l1 1v27l2-3 8-24h16l1 1v12l-1 15h2l3-12 5-15 2-2h11l1 2-8 18-9 22-6 1-10-1-1-26-8 23-4 4-13-1-1-1-1-21z" fill="#FB9350"/>
<path transform="translate(1172,1113)" d="m0 0h8l1 5-6 36-3 2h-10l-4-2-8-23-1 1-4 22-2 2h-9l1-14 5-28h15l10 25 1-1 3-23z" fill="#FB9350"/>
<path transform="translate(1264,1113)" d="m0 0 24 1 5 5 1 9-5 5-3 2 1 4 2 10v6l-6 1-6-1-2-14h-7l-3 14-2 1h-9l-1-2 6-35 1-5zm7 9-3 5 1 4 2 1h7l3-3v-5l-3-2z" fill="#FB9350"/>
<path transform="translate(1361,1113)" d="m0 0h32v8l-2 2h-19l-2 1-1 6h19v9l-19 1-2 1v5l20 1v8l-1 1h-32l-1-3 7-39z" fill="#FB9350"/>
<path transform="translate(1224,1113)" d="m0 0h31v8l-1 1-20 1-1 1v6h18l1 4-2 5-18 1-3 3v3l21 1-1 8-1 1h-31l-1-4 6-36z" fill="#FB9451"/>
<path transform="translate(1465,1113)" d="m0 0h14l6 4 2 3 1 6-2 2-8-1-6-5h-4v5l14 7 3 4v7l-3 6-5 4-3 1h-16l-5-3-3-5v-5l1-1 8 1 6 4h6l1-6-10-3-6-4-2-3 2-9 3-5z" fill="#FB9351"/>
<path transform="translate(1297,1113)" d="m0 0h12l2 3 2 28 3-3 10-21 4-6 1-1h10l-1 5-12 23-8 14-2 1h-11l-3-2-7-38z" fill="#FB9350"/>
<path transform="translate(1184,1113)" d="m0 0h37l-1 9-1 1h-11l-2 7-4 23-3 3-9-1 1-10 4-23-4 1h-8v-9z" fill="#FB9452"/>
<path transform="translate(1344,1113)" d="m0 0h10l1 3-7 39-1 1h-9l-2-1 1-8 4-23 2-10z" fill="#FB9351"/>
<path transform="translate(1125,1113)" d="m0 0h9l1 3-7 39-1 1h-8l-3-1 1-8 5-28 2-5z" fill="#FB9351"/>
</svg>
